<?xml version="1.0" encoding="UTF-8" standalone="no"?>
<!DOCTYPE svg PUBLIC "-//W3C//DTD SVG 1.1//EN" "http://www.w3.org/Graphics/SVG/1.1/DTD/svg11.dtd">
<svg width="100%" height="100%" viewBox="0 0 230 100" version="1.1" xmlns="http://www.w3.org/2000/svg" xmlns:xlink="http://www.w3.org/1999/xlink" xml:space="preserve" xmlns:serif="http://www.serif.com/" style="fill-rule:evenodd;clip-rule:evenodd;stroke-linejoin:round;stroke-miterlimit:2;">
    <g>
        <path d="M87.35,56.84C86.792,56.186 86.493,55.35 86.51,54.49C86.508,54.185 86.535,53.88 86.59,53.58L88.19,44.58C88.439,43.18 89.194,41.92 90.31,41.04C91.356,40.099 92.713,39.575 94.12,39.57L95.41,39.57C96.56,39.507 97.674,39.994 98.41,40.88C98.977,41.546 99.283,42.396 99.27,43.27C99.266,43.562 99.24,43.853 99.19,44.14L97.59,53.14C97.33,54.543 96.569,55.805 95.45,56.69C94.404,57.631 93.047,58.155 91.64,58.16L90.37,58.16C89.219,58.228 88.103,57.74 87.37,56.85M93.8,34.25C91.005,34.261 88.308,35.292 86.22,37.15C84.047,38.913 82.574,41.397 82.07,44.15L80.48,53.15C80.364,53.76 80.304,54.379 80.3,55C80.276,56.977 80.965,58.898 82.24,60.41C83.917,62.434 86.444,63.566 89.07,63.47L92,63.47C94.793,63.458 97.488,62.431 99.58,60.58C101.762,58.821 103.242,56.336 103.75,53.58L105.34,44.58C105.457,43.963 105.517,43.337 105.52,42.71C105.528,40.719 104.818,38.79 103.52,37.28C101.843,35.256 99.316,34.124 96.69,34.22L93.8,34.25Z" style="fill:rgb(46,74,98);fill-rule:nonzero;"/>
        <path d="M65.48,39.58L70.41,39.58C71.332,39.482 72.252,39.797 72.92,40.44C73.212,40.804 73.358,41.264 73.33,41.73C73.327,42.006 73.296,42.28 73.24,42.55C73.134,43.469 72.692,44.316 72,44.93C71.45,45.39 70.15,45.93 67.12,45.93L64.36,45.93L65.48,39.58ZM63.38,34.25C61.578,34.294 60.033,35.592 59.68,37.36L55.05,63.48L61.24,63.48L63.18,52.56L71.27,63.48L78.93,63.48L69.72,51.11C70.491,51.091 71.259,51.017 72.02,50.89C73.484,50.524 74.849,49.842 76.02,48.89C77.802,47.393 78.982,45.299 79.34,43C79.441,42.422 79.495,41.837 79.5,41.25C79.538,39.664 79.005,38.117 78,36.89C76.42,35.07 74.075,34.092 71.67,34.25L63.38,34.25Z" style="fill:rgb(46,74,98);fill-rule:nonzero;"/>
        <path d="M164.09,39.58L169,39.58C169.922,39.482 170.842,39.797 171.51,40.44C171.802,40.804 171.948,41.264 171.92,41.73C171.917,42.006 171.886,42.28 171.83,42.55C171.713,43.474 171.257,44.323 170.55,44.93C170,45.39 168.7,45.93 165.67,45.93L163,45.93L164.09,39.58ZM162,34.25C160.198,34.294 158.653,35.592 158.3,37.36L153.67,63.48L159.86,63.48L161.8,52.56L169.88,63.48L177.55,63.48L168.34,51.11C169.111,51.091 169.879,51.017 170.64,50.89C172.104,50.524 173.469,49.842 174.64,48.89C176.414,47.39 177.587,45.297 177.94,43C178.041,42.422 178.095,41.837 178.1,41.25C178.141,39.67 177.616,38.127 176.62,36.9C175.04,35.08 172.695,34.102 170.29,34.26L162,34.25Z" style="fill:rgb(46,74,98);fill-rule:nonzero;"/>
        <path d="M9.05,68.18L7.15,68.18C6.957,68.176 6.771,68.248 6.63,68.38C6.479,68.5 6.376,68.671 6.34,68.86L5.34,74.77L6.64,74.77L7.05,72.46L8.38,72.46C8.945,72.473 9.496,72.281 9.93,71.92C10.367,71.513 10.643,70.963 10.71,70.37C10.752,70.173 10.775,69.972 10.78,69.77C10.793,69.411 10.684,69.058 10.47,68.77C10.114,68.364 9.589,68.146 9.05,68.18ZM9.43,69.87C9.443,70.006 9.443,70.144 9.43,70.28C9.402,70.575 9.284,70.855 9.09,71.08C8.88,71.245 8.617,71.33 8.35,71.32L7.25,71.32L7.6,69.32L8.75,69.32C8.971,69.295 9.193,69.372 9.35,69.53C9.412,69.632 9.44,69.751 9.43,69.87Z" style="fill:rgb(46,74,98);fill-rule:nonzero;"/>
        <path d="M15.6,72.24L14.31,68.57C14.224,68.326 13.989,68.164 13.73,68.17L13.48,68.17C13.085,68.177 12.745,68.462 12.67,68.85L11.62,74.77L13,74.77L13.72,70.7L15,74.37C15.091,74.619 15.335,74.782 15.6,74.77L15.82,74.77C15.89,74.78 15.96,74.78 16.03,74.77C16.346,74.697 16.588,74.44 16.64,74.12L17.64,68.2L16.32,68.2L15.6,72.24Z" style="fill:rgb(46,74,98);fill-rule:nonzero;"/>
        <path d="M20.09,68.83C19.6,69.224 19.266,69.781 19.15,70.4L18.79,72.4C18.775,72.543 18.775,72.687 18.79,72.83C18.79,72.835 18.79,72.839 18.79,72.844C18.79,73.875 19.639,74.724 20.67,74.724C20.71,74.724 20.75,74.723 20.79,74.72L23,74.72L23.2,73.58L21,73.58C20.726,73.591 20.461,73.477 20.28,73.27C20.154,73.111 20.087,72.913 20.09,72.71C20.085,72.637 20.085,72.563 20.09,72.49L20.18,72L22.88,72L23.08,70.85L20.41,70.85L20.48,70.44C20.537,70.116 20.712,69.824 20.97,69.62C21.218,69.399 21.538,69.274 21.87,69.27L23.94,69.27L24.15,68.13L21.79,68.13C21.157,68.149 20.553,68.398 20.09,68.83Z" style="fill:rgb(46,74,98);fill-rule:nonzero;"/>
        <path d="M28.94,72.13C28.873,72.532 28.677,72.901 28.38,73.18C28.13,73.441 27.791,73.599 27.43,73.62C27.123,73.622 26.835,73.472 26.66,73.22C26.524,73.023 26.454,72.789 26.46,72.55C26.451,72.44 26.451,72.33 26.46,72.22L27.18,68.22L25.87,68.22L25.17,72.17C25.138,72.348 25.121,72.529 25.12,72.71C25.124,73.175 25.274,73.626 25.55,74C25.946,74.509 26.565,74.796 27.21,74.77L27.39,74.77C28.088,74.761 28.758,74.486 29.26,74C29.793,73.527 30.147,72.884 30.26,72.18L30.98,68.18L29.64,68.18L28.94,72.13Z" style="fill:rgb(46,74,98);fill-rule:nonzero;"/>
        <path d="M34.1,69.5C34.196,69.384 34.34,69.318 34.49,69.32L36.79,69.32L36.99,68.18L34.43,68.18C33.932,68.174 33.455,68.381 33.12,68.75C32.825,69.063 32.63,69.456 32.56,69.88C32.551,70.007 32.551,70.133 32.56,70.26C32.555,70.544 32.635,70.822 32.79,71.06C33.179,71.554 33.771,71.848 34.4,71.86C35.4,72.01 35.47,72.22 35.48,72.25C35.522,72.351 35.542,72.46 35.54,72.57C35.545,72.65 35.545,72.73 35.54,72.81C35.506,73.024 35.421,73.227 35.29,73.4C35.194,73.538 35.038,73.623 34.87,73.63L32.1,73.63L31.9,74.77L34.9,74.77C35.403,74.77 35.882,74.551 36.21,74.17C36.53,73.813 36.742,73.373 36.82,72.9C36.834,72.754 36.834,72.606 36.82,72.46C36.828,72.16 36.755,71.863 36.61,71.6C36.248,71.064 35.647,70.735 35,70.72C34,70.57 33.92,70.39 33.91,70.36C33.868,70.291 33.847,70.211 33.85,70.13C33.845,70.08 33.845,70.03 33.85,69.98C33.888,69.8 33.974,69.634 34.1,69.5Z" style="fill:rgb(46,74,98);fill-rule:nonzero;"/>
        <path d="M43.8,68.83C43.309,69.222 42.978,69.781 42.87,70.4L42.5,72.4C42.49,72.543 42.49,72.687 42.5,72.83C42.498,73.273 42.654,73.702 42.94,74.04C43.316,74.492 43.882,74.744 44.47,74.72L46.73,74.72L46.93,73.58L44.72,73.58C44.449,73.59 44.187,73.476 44.01,73.27C43.877,73.114 43.806,72.915 43.81,72.71C43.806,72.637 43.806,72.563 43.81,72.49L43.89,72L46.6,72L46.8,70.85L44.1,70.85L44.17,70.44C44.311,69.78 44.886,69.296 45.56,69.27L47.64,69.27L47.84,68.13L45.51,68.13C44.874,68.147 44.265,68.396 43.8,68.83Z" style="fill:rgb(46,74,98);fill-rule:nonzero;"/>
        <path d="M49.06,69.32L50.86,69.32L49.89,74.77L51.23,74.77L52.2,69.32L54,69.32L54.21,68.18L49.26,68.18L49.06,69.32Z" style="fill:rgb(46,74,98);fill-rule:nonzero;"/>
        <path d="M60.82,69.5C60.92,69.384 61.067,69.318 61.22,69.32L63.52,69.32L63.72,68.18L61.15,68.18C60.653,68.178 60.177,68.385 59.84,68.75C59.552,69.066 59.361,69.458 59.29,69.88C59.276,70.006 59.276,70.134 59.29,70.26C59.286,70.543 59.366,70.822 59.52,71.06C59.908,71.556 60.5,71.851 61.13,71.86C62.13,72.01 62.2,72.22 62.21,72.25C62.232,72.355 62.232,72.465 62.21,72.57C62.215,72.65 62.215,72.73 62.21,72.81C62.173,73.025 62.084,73.228 61.95,73.4C61.856,73.54 61.699,73.626 61.53,73.63L58.83,73.63L58.63,74.77L61.63,74.77C62.133,74.77 62.612,74.551 62.94,74.17C63.266,73.816 63.482,73.375 63.56,72.9C63.57,72.754 63.57,72.606 63.56,72.46C63.563,72.16 63.491,71.865 63.35,71.6C62.986,71.061 62.38,70.732 61.73,70.72C60.73,70.57 60.66,70.39 60.64,70.36C60.598,70.291 60.577,70.211 60.58,70.13C60.575,70.08 60.575,70.03 60.58,69.98C60.615,69.801 60.698,69.635 60.82,69.5Z" style="fill:rgb(46,74,98);fill-rule:nonzero;"/>
        <path d="M66.71,68.83C66.216,69.221 65.882,69.78 65.77,70.4L65.41,72.46C65.395,72.6 65.395,72.74 65.41,72.88C65.409,73.321 65.561,73.749 65.84,74.09C66.221,74.541 66.79,74.792 67.38,74.77L69.6,74.77L69.8,73.63L67.63,73.63C67.356,73.641 67.091,73.527 66.91,73.32C66.784,73.161 66.717,72.963 66.72,72.76C66.711,72.687 66.711,72.613 66.72,72.54L66.8,72.05L69.5,72.05L69.7,70.9L67,70.9L67.08,70.49C67.137,70.166 67.312,69.874 67.57,69.67C67.818,69.449 68.138,69.324 68.47,69.32L70.54,69.32L70.75,68.18L68.41,68.18C67.784,68.184 67.179,68.415 66.71,68.83Z" style="fill:rgb(46,74,98);fill-rule:nonzero;"/>
        <path d="M75.07,68.18L73.18,68.18C72.985,68.178 72.795,68.249 72.65,68.38C72.5,68.5 72.4,68.671 72.37,68.86L71.32,74.77L72.66,74.77L73.11,72.23L75,74.77L76.66,74.77L74.56,72C74.755,71.994 74.948,71.974 75.14,71.94C75.467,71.86 75.772,71.706 76.03,71.49C76.432,71.156 76.699,70.686 76.78,70.17C76.794,70.04 76.794,69.91 76.78,69.78C76.795,69.418 76.678,69.062 76.45,68.78C76.105,68.381 75.597,68.16 75.07,68.18ZM74.78,69.32C75.001,69.298 75.221,69.375 75.38,69.53C75.452,69.62 75.488,69.735 75.48,69.85C75.484,69.913 75.484,69.977 75.48,70.04C75.455,70.258 75.348,70.459 75.18,70.6C74.837,70.803 74.436,70.887 74.04,70.84L73.38,70.84L73.65,69.32L74.78,69.32Z" style="fill:rgb(46,74,98);fill-rule:nonzero;"/>
        <path d="M80.66,72.54L80,68.17L78.6,68.17L79.6,74.23C79.631,74.552 79.918,74.793 80.24,74.77L80.43,74.77C80.744,74.78 81.034,74.597 81.16,74.31L84.33,68.17L82.88,68.17L80.66,72.54Z" style="fill:rgb(46,74,98);fill-rule:nonzero;"/>
        <path d="M84.79,74.77L86.13,74.77L87.3,68.18L85.96,68.18L84.79,74.77Z" style="fill:rgb(46,74,98);fill-rule:nonzero;"/>
        <path d="M89.84,68.83C89.353,69.225 89.023,69.783 88.91,70.4L88.54,72.46C88.53,72.6 88.53,72.74 88.54,72.88C88.538,73.323 88.694,73.752 88.98,74.09C89.357,74.541 89.923,74.792 90.51,74.77L92.61,74.77L92.81,73.63L90.81,73.63C90.536,73.641 90.273,73.522 90.1,73.31C89.966,73.159 89.895,72.962 89.9,72.76C89.896,72.687 89.896,72.613 89.9,72.54L90.26,70.49C90.321,70.165 90.499,69.873 90.76,69.67C91.003,69.448 91.32,69.323 91.65,69.32L93.57,69.32L93.77,68.18L91.55,68.18C90.921,68.185 90.314,68.416 89.84,68.83Z" style="fill:rgb(46,74,98);fill-rule:nonzero;"/>
        <path d="M95.88,68.83C95.411,69.233 95.1,69.79 95,70.4L94.64,72.4C94.626,72.543 94.626,72.687 94.64,72.83C94.602,73.28 94.73,73.728 95,74.09C95.377,74.541 95.943,74.792 96.53,74.77L98.8,74.77L99,73.63L96.81,73.63C96.536,73.641 96.271,73.527 96.09,73.32C95.961,73.162 95.89,72.964 95.89,72.76C95.886,72.687 95.886,72.613 95.89,72.54L95.98,72.05L98.68,72.05L98.88,70.9L96.2,70.9L96.28,70.49C96.337,70.166 96.512,69.874 96.77,69.67C97.014,69.449 97.331,69.324 97.66,69.32L99.74,69.32L99.95,68.18L97.59,68.18C96.961,68.185 96.354,68.416 95.88,68.83Z" style="fill:rgb(46,74,98);fill-rule:nonzero;"/>
        <path d="M103.74,70.72C102.79,70.57 102.67,70.39 102.65,70.36C102.609,70.29 102.589,70.211 102.59,70.13C102.585,70.08 102.585,70.03 102.59,69.98C102.616,69.804 102.689,69.638 102.8,69.5C102.901,69.385 103.047,69.319 103.2,69.32L105.49,69.32L105.7,68.18L103.13,68.18C102.636,68.177 102.162,68.384 101.83,68.75C101.537,69.064 101.342,69.457 101.27,69.88C101.256,70.006 101.256,70.134 101.27,70.26C101.266,70.543 101.346,70.822 101.5,71.06C101.889,71.554 102.481,71.848 103.11,71.86C104.11,72.01 104.18,72.22 104.19,72.25C104.232,72.351 104.252,72.46 104.25,72.57C104.255,72.65 104.255,72.73 104.25,72.81C104.213,73.025 104.124,73.228 103.99,73.4C103.897,73.536 103.745,73.621 103.58,73.63L100.87,73.63L100.67,74.77L103.67,74.77C104.174,74.774 104.654,74.554 104.98,74.17C105.306,73.816 105.522,73.375 105.6,72.9C105.614,72.754 105.614,72.606 105.6,72.46C105.608,72.16 105.535,71.863 105.39,71.6C105.02,71.052 104.401,70.722 103.74,70.72Z" style="fill:rgb(46,74,98);fill-rule:nonzero;"/>
        <path d="M220,49.6C217.2,59.19 202.74,72.12 179.89,80.41C155.54,89.24 126.34,92.32 120,81.77C116,75.07 124.6,64.77 137.31,56.46C118.31,65.09 106.2,77.19 109.06,86.1C111.06,92.38 120.06,95.7 132.36,95.75C170.21,95.43 223.81,79.92 224.2,35.29C224.34,18.91 219.89,5.23 211.7,4.66C205,4.21 197.49,15.3 196.86,28.43C198.25,17.11 207.22,8 210.94,7.6C217.39,7 221.14,17.6 222.03,27.87C222.03,27.87 223.25,41.23 220.03,49.6" style="fill:rgb(46,74,98);fill-rule:nonzero;"/>
        <g>
            <path d="M19.08,34.25C16.282,34.262 13.583,35.293 11.49,37.15C9.317,38.913 7.844,41.397 7.34,44.15L5.75,53.15C5.634,53.76 5.574,54.379 5.57,55C5.551,56.976 6.239,58.896 7.51,60.41C9.187,62.434 11.714,63.566 14.34,63.47L24.4,63.47L25.34,58.14L15.64,58.14C14.494,58.19 13.387,57.71 12.64,56.84C12.092,56.185 11.798,55.354 11.81,54.5C11.811,54.188 11.841,53.877 11.9,53.57L12.25,51.51L24.06,51.51L25.06,46.2L13.17,46.2L13.46,44.58C13.707,43.187 14.454,41.931 15.56,41.05C16.612,40.105 17.976,39.578 19.39,39.57L28.64,39.57L29.58,34.24L19.08,34.25Z" style="fill:rgb(46,74,98);fill-rule:nonzero;"/>
            <path d="M49.57,34.25L46.47,51.71C46.191,53.446 45.347,55.042 44.07,56.25C42.967,57.363 41.493,58.032 39.93,58.13C38.65,58.134 37.448,57.5 36.73,56.44C36.157,55.606 35.867,54.611 35.9,53.6C35.891,53.115 35.925,52.63 36,52.15L39.18,34.25L33,34.25L29.93,51.71C29.792,52.496 29.722,53.292 29.72,54.09C29.684,56.218 30.36,58.299 31.64,60C33.371,62.297 36.126,63.6 39,63.48L39.81,63.48C42.88,63.475 45.837,62.306 48.08,60.21C50.445,58.114 52.02,55.268 52.54,52.15L55.71,34.25L49.57,34.25Z" style="fill:rgb(46,74,98);fill-rule:nonzero;"/>
            <path d="M108.52,34.25L107.57,39.58L115.47,39.58L111.23,63.48L117.41,63.48L121.65,39.58L129.55,39.58L130.5,34.25L108.52,34.25Z" style="fill:rgb(46,74,98);fill-rule:nonzero;"/>
            <path d="M149.51,34.25L141.89,45.33L138.19,34.25L131.43,34.25L137.62,51.25C137.673,51.381 137.737,51.509 137.81,51.63L135.69,63.52L141.87,63.52L143.87,51.97C144.014,51.823 144.148,51.666 144.27,51.5L156.67,34.29L149.51,34.25Z" style="fill:rgb(46,74,98);fill-rule:nonzero;"/>
            <path d="M193.26,34.25C190.465,34.261 187.768,35.292 185.68,37.15C183.504,38.911 182.03,41.396 181.53,44.15L179.94,53.15C179.823,53.77 179.762,54.399 179.76,55.03C179.736,57.007 180.425,58.928 181.7,60.44C183.376,62.465 185.903,63.597 188.53,63.5L198.58,63.5L199.53,58.17L189.82,58.17C188.673,58.226 187.563,57.745 186.82,56.87C186.27,56.216 185.971,55.385 185.98,54.53C185.981,54.218 186.011,53.907 186.07,53.6L186.43,51.54L198.27,51.54L199.22,46.23L187.35,46.23L187.65,44.61C188.24,41.787 190.698,39.714 193.58,39.61L202.82,39.61L203.82,34.28L193.26,34.25Z" style="fill:rgb(46,74,98);fill-rule:nonzero;"/>
            <g>
                <path d="M206,3.65C206,3.65 192.94,0.26 191.31,28.65C191.27,28.62 196.17,4.07 206,3.65Z" style="fill:rgb(46,74,98);fill-rule:nonzero;"/>
                <path d="M200.81,3.5L200.4,3.5C198.21,3.34 187.77,4 186.62,29C186.62,29 191.06,5 200.42,3.55L200.81,3.5Z" style="fill:rgb(46,74,98);fill-rule:nonzero;"/>
                <path d="M194.53,4.13C194.53,4.13 181.39,3.74 182.81,29.54C182.81,29.54 182.88,28.92 183.04,27.87C183.675,23.546 184.679,19.283 186.04,15.13C187.87,9.76 190.61,4.8 194.53,4.13Z" style="fill:rgb(46,74,98);fill-rule:nonzero;"/>
                <g>
                    <path d="M211.94,17.82C208.31,17.32 206.85,22.94 206.31,28.73C203.173,28.285 199.996,28.201 196.84,28.48C193.684,28.759 209.08,27.67 216.84,35.48C217.51,31.37 216.74,18.48 211.94,17.82Z" style="fill:rgb(46,74,98);fill-rule:nonzero;"/>
                </g>
                <path d="M213.52,21.15L213.46,21.15C213.61,21.74 213.77,22.3 213.91,22.92C214.221,24.269 214.429,25.639 214.53,27.02C214.726,29.152 214.676,31.3 214.38,33.42C214.63,33.61 214.85,33.8 215.3,34.13C215.931,30.883 215.731,27.529 214.72,24.38C214.375,23.284 213.974,22.206 213.52,21.15Z" style="fill:rgb(46,74,98);fill-rule:nonzero;"/>
            </g>
            <path d="M219,50.59C216.23,60.45 201.8,73.66 178.87,82C154.44,90.9 125.09,93.82 118.62,82.88C114.51,75.94 123.09,65.44 135.81,56.93C116.72,65.67 104.69,78.04 107.64,87.25C109.71,93.74 118.78,97.25 131.18,97.4C169.26,97.4 223.06,81.87 223.06,35.86C223.06,18.97 218.47,4.86 210.22,4.17C203.44,3.64 197.36,14.93 196.84,28.46C198.14,16.8 205.73,7.52 209.48,7.19C215.96,6.62 219.83,17.59 220.82,28.19C220.82,28.19 222.16,41.98 218.96,50.58" style="fill:rgb(46,74,98);fill-rule:nonzero;"/>
        </g>
    </g>
</svg>
