<?xml version="1.0" encoding="UTF-8" standalone="no"?>
<!DOCTYPE svg PUBLIC "-//W3C//DTD SVG 1.1//EN" "http://www.w3.org/Graphics/SVG/1.1/DTD/svg11.dtd">
<svg width="100%" height="100%" viewBox="0 0 171 43" version="1.1" xmlns="http://www.w3.org/2000/svg" xmlns:xlink="http://www.w3.org/1999/xlink" xml:space="preserve" xmlns:serif="http://www.serif.com/" style="fill-rule:evenodd;clip-rule:evenodd;stroke-linejoin:round;stroke-miterlimit:2;">
    <g>
        <path d="M56.261,7.671L57.129,22.56C57.207,23.856 57.245,24.959 57.207,25.828C57.207,27.015 58.154,28.072 59.333,27.995C59.572,27.995 59.847,27.956 60.082,27.956C60.241,27.956 60.357,27.956 60.516,27.995C61.856,28.036 63.154,27.284 63.669,26.065C63.943,25.394 64.299,24.529 64.73,23.388C66.544,18.975 67.133,17.99 69.417,13.343C70.285,11.532 70.718,10.547 71.505,8.615C71.585,10.111 71.585,11.06 71.782,14.329L72.254,21.024C72.413,23.347 72.452,24.922 72.452,26.025C72.452,27.21 73.474,28.036 74.618,27.995C74.854,27.995 75.092,27.956 75.326,27.956C75.484,27.956 75.642,27.995 75.798,27.995C77.179,28.036 78.517,27.284 78.99,25.986C79.107,25.59 79.306,25.155 79.501,24.61C80.209,22.795 80.605,21.891 81.393,20.117L87.813,5.938C88.64,4.125 89.232,2.905 89.825,1.998C90.259,1.288 89.742,0.381 88.917,0.381C88.72,0.422 88.484,0.422 88.249,0.422L87.775,0.422C86.556,0.381 85.412,1.13 85.055,2.312C83.952,6.609 81.393,12.752 77.809,21.061L76.313,24.489L75.248,10.154C75.051,7.16 75.051,5.427 75.092,4.127C75.129,2.984 74.266,2.157 73.122,2.197C71.783,2.236 70.405,2.828 69.971,4.087C69.342,5.94 68.869,7.12 67.727,9.76L61.03,24.489C60.753,19.962 60.717,19.488 60.597,16.808L60.081,5.779C60.001,4.241 60.042,3.184 60.081,2.393C60.16,1.289 59.294,0.306 58.154,0.345L57.402,0.345C56.341,0.306 55.433,1.174 55.669,2.234C55.946,3.496 56.063,5.111 56.261,7.671ZM94.191,28.428C97.816,28.428 100.375,23.701 102.184,21.301C102.184,21.775 101.633,24.684 101.477,26.304C101.398,27.247 102.226,28.036 103.208,27.995C104.155,27.956 105.061,27.284 105.061,26.344C105.061,25.08 105.259,22.994 105.926,19.214L106.634,15.313C107.304,11.651 107.737,9.639 108.054,8.342C108.292,7.394 107.502,6.373 106.558,6.688L105.653,7C104.391,6.531 103.209,6.096 101.435,6.096C98.168,6.096 95.921,7.592 94.977,8.303C89.108,12.634 88.439,19.961 88.439,21.852C88.439,26.344 91.313,28.428 94.191,28.428ZM100.766,8.575C102.264,8.575 103.369,8.969 104.118,9.207L103.093,14.683C102.382,18.502 101.635,20.791 100.493,22.442C99.117,24.45 97.383,25.121 95.923,25.121C93.362,25.121 92.38,23.111 92.38,20.393C92.379,17.086 94.15,8.575 100.766,8.575ZM32.514,27.879L32.71,27.879C33.851,27.916 34.799,27.015 34.916,25.87C35.112,23.268 36.017,18.068 36.61,15.982C37.712,12.043 39.959,10.389 41.809,9.955C42.989,9.679 44.172,9.049 44.566,7.905C44.882,7 44.213,5.976 43.266,6.251C42.675,6.449 41.967,6.767 41.141,7.315C39.092,8.697 37.673,12.001 36.766,13.46C37.082,11.806 37.755,9.049 37.91,8.302C38.106,7.315 37.161,6.608 36.177,6.803C35.861,6.842 35.508,6.882 35.114,6.923C34.17,7.041 33.737,8.064 33.814,9.007C33.854,9.915 33.737,11.255 33.342,13.381L31.413,24.055C31.331,24.644 31.136,25.358 30.937,26.025C30.664,27.015 31.527,27.879 32.514,27.879ZM126.054,27.956C127.313,27.956 128.376,27.05 128.574,25.787C128.93,23.11 129.913,18.19 130.07,17.479C131.017,13.619 132.119,12 132.906,11.175C134.13,9.834 135.782,9.087 137.434,9.087C140.665,9.087 140.546,11.335 140.116,13.816L138.58,22.757C138.303,24.333 138.104,25.317 137.912,26.025C137.633,27.014 138.501,27.916 139.526,27.916C140.706,27.916 141.729,27.05 141.808,25.907C141.886,25.12 142.006,24.055 142.161,22.994L143.7,14.169C144.052,12.16 144.212,11.137 144.212,10.272C144.212,7.159 141.771,5.977 139.247,5.977C138.145,5.977 136.613,6.175 134.916,7.276C133.027,8.42 131.725,11.69 130.977,12.791L132.277,5.702C132.673,3.732 132.869,2.748 133.104,1.607C133.34,0.621 132.354,-0.166 131.374,0.03C130.936,0.108 130.505,0.146 130.033,0.186C129.167,0.266 128.889,1.288 128.931,2.195C128.968,3.375 128.651,5.503 127.865,9.678L125.857,20.707C125.306,23.621 124.989,25.119 124.676,26.105C124.4,27.05 125.109,27.956 126.054,27.956ZM109.666,28.273C110.494,28.468 111.322,28.547 112.464,28.547C114.12,28.547 116.719,28.427 119.079,26.734C121.326,25.08 122.115,22.795 122.115,21.024C122.115,18.541 120.421,17.479 119.316,16.807L117.312,15.588C115.81,14.76 114.355,13.932 114.355,12.197C114.355,10.626 116.01,8.696 119.002,8.696C119.947,8.696 120.695,8.889 121.287,9.167C122.074,9.563 123.1,9.363 123.49,8.538C123.885,7.63 123.453,6.53 122.47,6.33C121.718,6.138 120.971,6.057 119.947,6.057C118.452,6.057 115.694,6.33 113.681,7.827C111.873,9.207 110.574,11.177 110.574,13.421C110.574,16.099 112.658,17.36 113.762,18.031L116.205,19.45C117.429,20.154 118.53,20.903 118.53,22.282C118.53,23.896 116.875,25.631 113.761,25.631C112.147,25.631 111.123,25.359 110.375,25.005C109.589,24.61 108.604,24.844 108.324,25.712C107.976,26.815 108.525,28.036 109.666,28.273ZM6.362,27.879C6.558,27.879 6.716,27.879 6.872,27.916C8.054,27.956 9.038,27.05 9.514,25.948C9.749,25.317 10.103,24.529 10.615,23.466L12.426,19.724L22.233,19.724L22.47,23.308C22.551,24.529 22.626,25.435 22.666,26.106C22.707,27.169 23.612,27.916 24.677,27.878L25.111,27.878C25.228,27.878 25.347,27.878 25.463,27.915C26.528,27.955 27.276,26.933 27.119,25.869C26.961,25.079 26.843,23.895 26.528,21.417L24.953,7.512C24.794,5.741 24.638,4.086 24.518,2.434C24.399,1.211 23.257,0.464 22.035,0.464C21.682,0.464 21.407,0.464 21.132,0.423C19.792,0.382 18.453,1.017 17.862,2.235C15.893,6.294 11.914,14.054 9.944,17.716C8.449,20.515 6.794,23.702 5.295,26.223C4.824,27.015 5.493,27.879 6.362,27.879ZM17.349,9.835C17.862,8.852 20.147,4.638 20.58,3.772C20.657,4.242 20.854,5.467 21.211,8.853L21.958,16.809C20.54,16.891 19.87,16.891 18.69,16.891C17.782,16.891 16.718,16.891 13.805,16.809L17.349,9.835ZM153.3,14.927C153.3,14.927 162.631,14.831 166.154,22.45C164.344,16.64 159.489,12.452 152.632,12.452C151.188,12.452 150.513,12.94 150.513,13.677C150.513,14.418 151.538,14.927 153.3,14.927ZM168.664,19.343C167.982,17.98 167.101,17.631 166.248,18.057C165.396,18.481 165.292,19.745 166.12,21.398C166.12,21.398 170.62,30.123 163.486,37.836C169.339,32.776 171.887,25.795 168.664,19.343ZM161.037,29.94C160.464,29.644 159.626,30.129 159.306,30.866C158.984,31.606 158.644,35.22 151.699,38.054C151.699,38.054 159.703,37.596 161.424,31.831C161.702,30.893 161.615,30.227 161.037,29.94ZM155.691,16.408C148.837,16.408 147.032,21.536 147.032,23.76C147.032,25.983 148.568,30.243 153.39,29.588C156.727,29.134 157.35,25.558 155.909,23.9C155.907,23.892 155.907,23.886 155.904,23.88C155.904,23.88 154.868,22.531 152.879,22.531C150.888,22.531 150.02,24.242 150.02,25.421C150.02,26.086 150.245,27.07 150.844,27.793C150.082,27.277 149.639,26.313 149.639,24.76C149.639,22.445 151.72,20.142 155.59,20.142C159.832,20.142 162.978,24.242 162.978,28.031C162.978,33.105 160.332,38.876 148.495,38.876C133.809,38.876 123.104,30.702 73.718,30.702C37.157,30.703 0,42.423 0,42.423C0,42.423 38.44,33.631 73.598,33.631C119.524,33.631 132.88,42.657 148.494,42.657C164.495,42.657 166.861,32.335 166.861,28.032C166.861,23.73 163.457,16.408 155.691,16.408Z" style="fill:rgb(46,74,98);fill-rule:nonzero;"/>
    </g>
</svg>
