<?xml version="1.0" encoding="UTF-8" standalone="no"?>
<!DOCTYPE svg PUBLIC "-//W3C//DTD SVG 1.1//EN" "http://www.w3.org/Graphics/SVG/1.1/DTD/svg11.dtd">
<svg width="100%" height="100%" viewBox="0 0 1080 1080" version="1.1" xmlns="http://www.w3.org/2000/svg" xmlns:xlink="http://www.w3.org/1999/xlink" xml:space="preserve" xmlns:serif="http://www.serif.com/" style="fill-rule:evenodd;clip-rule:evenodd;stroke-linejoin:round;stroke-miterlimit:2;">
    <g transform="matrix(19.433,0,0,19.433,-1500.47,-7136.03)">
        <path d="M88.502,389.28L95.582,389.28L95.582,412.022L88.502,412.022L88.502,389.28ZM92.043,377.978C94.307,377.978 96.142,379.815 96.142,382.074C96.142,384.336 94.308,386.176 92.043,386.176C89.773,386.176 87.939,384.336 87.939,382.074C87.939,379.815 89.773,377.978 92.043,377.978" style="fill:white;fill-rule:nonzero;"/>
        <path d="M100.017,389.28L106.798,389.28L106.798,392.391L106.891,392.391C107.837,390.601 110.142,388.717 113.585,388.717C120.742,388.717 122.062,393.424 122.062,399.549L122.062,412.022L114.998,412.022L114.998,400.965C114.998,398.325 114.946,394.934 111.324,394.934C107.644,394.934 107.083,397.807 107.083,400.772L107.083,412.021L100.018,412.021L100.018,389.28L100.017,389.28Z" style="fill:white;fill-rule:nonzero;"/>
    </g>
</svg>
