<?xml version="1.0" encoding="UTF-8" standalone="no"?>
<!DOCTYPE svg PUBLIC "-//W3C//DTD SVG 1.1//EN" "http://www.w3.org/Graphics/SVG/1.1/DTD/svg11.dtd">
<svg width="100%" height="100%" viewBox="0 0 1080 1080" version="1.1" xmlns="http://www.w3.org/2000/svg" xmlns:xlink="http://www.w3.org/1999/xlink" xml:space="preserve" xmlns:serif="http://www.serif.com/" style="fill-rule:evenodd;clip-rule:evenodd;stroke-linejoin:round;stroke-miterlimit:2;">
    <g transform="matrix(18.1442,0,0,18.1442,-3996.05,-4304.48)">
        <path d="M270,261.777C270,256.929 266.07,253 261.223,253L238.778,253C233.93,253 230.001,256.93 230.001,261.777L230.001,272.222C230.001,277.07 233.931,280.999 238.778,280.999L261.223,280.999C266.071,280.999 270,277.069 270,272.222L270,261.777ZM256.454,267.693L246.735,272.763C246.34,272.977 245,272.691 245,272.242L245,262.02C245,261.566 246.352,261.28 246.747,261.505L256.381,266.747C256.785,266.977 256.863,267.471 256.454,267.693Z" style="fill:white;fill-rule:nonzero;"/>
    </g>
</svg>
