<?xml version="1.0" encoding="UTF-8" standalone="no"?>
<!DOCTYPE svg PUBLIC "-//W3C//DTD SVG 1.1//EN" "http://www.w3.org/Graphics/SVG/1.1/DTD/svg11.dtd">
<svg width="100%" height="100%" viewBox="0 0 1080 1080" version="1.1" xmlns="http://www.w3.org/2000/svg" xmlns:xlink="http://www.w3.org/1999/xlink" xml:space="preserve" xmlns:serif="http://www.serif.com/" style="fill-rule:evenodd;clip-rule:evenodd;stroke-linejoin:round;stroke-miterlimit:2;">
    <g transform="matrix(17.94,0,0,17.94,-3945.01,-1953.67)">
        <path d="M260.06,126.785C258.83,126.785 257.832,127.782 257.832,129.013C257.832,130.243 258.829,131.241 260.06,131.241C261.29,131.241 262.288,130.244 262.288,129.013C262.288,127.782 261.291,126.785 260.06,126.785Z" style="fill:white;fill-rule:nonzero;"/>
        <path d="M250.156,129.642C244.996,129.642 240.798,133.84 240.798,139C240.798,144.16 244.996,148.358 250.156,148.358C255.316,148.358 259.514,144.16 259.514,139C259.514,133.84 255.316,129.642 250.156,129.642ZM250.156,144.995C246.851,144.995 244.161,142.306 244.161,139C244.161,135.694 246.85,133.005 250.156,133.005C253.461,133.005 256.15,135.694 256.15,139C256.15,142.306 253.461,144.995 250.156,144.995Z" style="fill:white;fill-rule:nonzero;"/>
        <path d="M257.585,158L242.414,158C236.12,158 231,152.88 231,146.586L231,131.414C231,125.12 236.12,120 242.414,120L257.585,120C263.879,120 269,125.12 269,131.414L269,146.586C269,152.88 263.879,158 257.585,158ZM242.414,123.575C238.091,123.575 234.575,127.091 234.575,131.414L234.575,146.586C234.575,150.909 238.091,154.425 242.414,154.425L257.585,154.425C261.908,154.425 265.425,150.909 265.425,146.586L265.425,131.414C265.425,127.091 261.908,123.575 257.585,123.575L242.414,123.575Z" style="fill:white;fill-rule:nonzero;"/>
    </g>
</svg>
