<?xml version="1.0" encoding="UTF-8" standalone="no"?>
<!DOCTYPE svg PUBLIC "-//W3C//DTD SVG 1.1//EN" "http://www.w3.org/Graphics/SVG/1.1/DTD/svg11.dtd">
<svg width="100%" height="100%" viewBox="0 0 1080 1080" version="1.1" xmlns="http://www.w3.org/2000/svg" xmlns:xlink="http://www.w3.org/1999/xlink" xml:space="preserve" xmlns:serif="http://www.serif.com/" style="fill-rule:evenodd;clip-rule:evenodd;stroke-linejoin:round;stroke-miterlimit:2;">
    <g transform="matrix(17.4951,0,0,17.4951,-1296.97,-1891.8)">
        <path d="M99.677,139.161L99.677,158.97C99.677,159.255 99.908,159.486 100.193,159.486L107.549,159.486C107.834,159.486 108.065,159.255 108.065,158.97L108.065,138.838L113.398,138.838C113.666,138.838 113.89,138.633 113.912,138.366L114.425,132.3C114.451,131.999 114.213,131.741 113.911,131.741L108.065,131.741L108.065,127.437C108.065,126.428 108.883,125.611 109.891,125.611L114.001,125.611C114.286,125.611 114.517,125.38 114.517,125.095L114.517,119.029C114.517,118.744 114.286,118.513 114.001,118.513L107.056,118.513C102.98,118.513 99.676,121.817 99.676,125.893L99.676,131.741L95.998,131.741C95.713,131.741 95.482,131.972 95.482,132.257L95.482,138.323C95.482,138.608 95.713,138.839 95.998,138.839L99.676,138.839L99.676,139.161L99.677,139.161Z" style="fill:white;"/>
    </g>
</svg>
