<?xml version="1.0" encoding="UTF-8" standalone="no"?>
<!DOCTYPE svg PUBLIC "-//W3C//DTD SVG 1.1//EN" "http://www.w3.org/Graphics/SVG/1.1/DTD/svg11.dtd">
<svg width="100%" height="100%" viewBox="0 0 1867 2742" version="1.1" xmlns="http://www.w3.org/2000/svg" xmlns:xlink="http://www.w3.org/1999/xlink" xml:space="preserve" xmlns:serif="http://www.serif.com/" style="fill-rule:evenodd;clip-rule:evenodd;stroke-linecap:round;stroke-linejoin:round;stroke-miterlimit:1.5;">
    <g id="Plan-de-travail1" serif:id="Plan de travail1" transform="matrix(1,0,0,1,-301.785,-398.669)">
        <rect x="301.785" y="398.669" width="1866.6" height="2741.54" style="fill:none;"/>
        <g transform="matrix(11.0702,0,0,11.0702,-25531.2,-19227.9)">
            <path d="M2425.89,1848.01C2422.25,1848.47 2440.94,1883.63 2439.97,1926.26C2439.09,1965.14 2432.99,1974.85 2416.29,1986.85C2409.88,1991.46 2371.23,2009.32 2338.37,2008.96C2353.98,1996.47 2374.83,1954.77 2384.46,1909.21C2399.87,1836.36 2401.86,1830.58 2407.53,1811.1C2419.74,1769.16 2423.06,1758.45 2442.51,1809.26C2447.53,1822.38 2469.6,1879.55 2469.03,1880.12C2468.35,1880.8 2439.6,1846.26 2425.89,1848.01Z" style="fill:rgb(14,25,33);stroke:rgb(14,25,33);stroke-width:0.06px;"/>
        </g>
        <g transform="matrix(11.0702,0,0,11.0702,-5199.56,-49512.6)">
            <path d="M662.58,4733.59C662.545,4733.7 662.54,4733.7 662.439,4733.75C662.309,4733.82 662.301,4733.8 662.162,4733.75C661.387,4733.5 661.386,4733.5 660.597,4733.3C653.525,4731.45 647.063,4730.39 646.511,4730.3C639.635,4729.1 634.846,4728.73 632.14,4728.55C626.041,4728.13 622.412,4728.41 620.263,4728.51C611.398,4728.94 603.546,4729.72 593.91,4732.26C593.687,4732.32 590.211,4733.2 584.812,4734.99C584.471,4735.1 581.69,4736 576.494,4737.94C572.839,4739.3 570.209,4740.37 569.205,4740.76C562.827,4743.24 561.262,4744.02 556.99,4745.57C555.407,4746.14 553.867,4746.66 553.452,4746.78C550.479,4747.7 548.004,4748.35 546.323,4748.77C546.315,4748.77 544.207,4749.28 541.369,4749.84C539.263,4750.26 538.058,4750.45 537.769,4750.49C533.254,4751.21 530.02,4751.51 529.344,4751.57C526.36,4751.84 524.004,4751.95 522.716,4752C521.786,4752.04 520.334,4752.06 520.127,4752.07C515.055,4752.14 511.238,4751.91 509.445,4751.79C508.348,4751.71 504.365,4751.37 501.421,4750.84C501.358,4750.83 501.223,4750.8 501.222,4750.8C501.159,4750.77 501.081,4750.75 501.037,4750.69C501.036,4750.69 500.978,4750.49 500.979,4750.49C501.014,4750.43 501.03,4750.35 501.085,4750.31C501.208,4750.21 501.221,4750.24 501.375,4750.25C503.787,4750.38 506.912,4750.29 507.393,4750.27C508.021,4750.25 510.137,4750.18 512.212,4750.04C517.248,4749.7 521.107,4749.13 523.121,4748.84C525.7,4748.47 527.893,4748.08 530.787,4747.51C534.131,4746.85 536.447,4746.27 538.028,4745.88C541.772,4744.96 544.341,4744.16 545.199,4743.91C548.983,4742.81 551.541,4741.87 552.159,4741.67C556.819,4740.12 559.846,4738.82 562.221,4737.86C564.865,4736.79 567.289,4735.85 567.948,4735.6C568.629,4735.34 572.772,4733.79 576.514,4732.53C580.148,4731.31 583.29,4730.39 583.883,4730.22C596.128,4726.63 604.698,4725.84 609.295,4725.52C613.376,4725.24 617.238,4725.19 620.388,4725.17C620.44,4725.17 622.13,4725.18 622.886,4725.19C628.592,4725.26 633.682,4726.03 634.83,4726.2C639.821,4726.95 644.221,4727.95 647.055,4728.64C648.689,4729.03 650.712,4729.59 651.029,4729.68C657.224,4731.39 661.438,4732.93 661.659,4733C661.719,4733.02 662.394,4733.23 662.401,4733.23C662.552,4733.36 662.556,4733.36 662.564,4733.38C662.617,4733.48 662.586,4733.57 662.58,4733.59Z" style="fill:rgb(14,25,33);"/>
        </g>
    </g>
</svg>
