<?xml version="1.0" encoding="UTF-8" standalone="no"?>
<!DOCTYPE svg PUBLIC "-//W3C//DTD SVG 1.1//EN" "http://www.w3.org/Graphics/SVG/1.1/DTD/svg11.dtd">
<svg width="100%" height="100%" viewBox="0 0 1016 769" version="1.1" xmlns="http://www.w3.org/2000/svg" xmlns:xlink="http://www.w3.org/1999/xlink" xml:space="preserve" xmlns:serif="http://www.serif.com/" style="fill-rule:evenodd;clip-rule:evenodd;stroke-linejoin:round;stroke-miterlimit:2;">
    <g id="Plan-de-travail1" serif:id="Plan de travail1" transform="matrix(1,0,0,1.13811,-31.6001,-234.297)">
        <rect x="31.6" y="205.866" width="1015.46" height="674.981" style="fill:none;"/>
        <g transform="matrix(1.13379,0,0,1.10777,-115.328,81.2856)">
            <path d="M954.955,243.98L954.955,590.253C954.955,613.203 934.236,631.836 908.715,631.836L246.093,631.836C220.572,631.836 199.853,613.203 199.853,590.253L199.853,243.98C199.853,221.029 220.572,202.397 246.093,202.397L908.715,202.397C934.236,202.397 954.955,221.029 954.955,243.98ZM642.753,422.257L902.785,271.245C910.964,266.495 913.316,256.667 908.034,249.313C902.753,241.958 891.825,239.843 883.646,244.592L578.094,422.04C578.094,422.04 271.132,244.575 271.132,244.575C262.942,239.84 252.019,241.975 246.754,249.34C241.489,256.705 243.864,266.528 252.053,271.262L513.228,422.256L256.855,569.06C252.749,571.411 251.538,576.318 254.153,580.01C256.767,583.703 262.224,584.792 266.33,582.441L529.571,431.705L568.576,454.255C574.398,457.621 581.871,457.614 587.685,454.237L626.463,431.717L888.463,582.432C892.564,584.791 898.022,583.712 900.646,580.024C903.269,576.336 902.069,571.427 897.968,569.068L642.753,422.257Z" style="fill:white;"/>
        </g>
    </g>
</svg>
