<?xml version="1.0" encoding="UTF-8" standalone="no"?>
<!DOCTYPE svg PUBLIC "-//W3C//DTD SVG 1.1//EN" "http://www.w3.org/Graphics/SVG/1.1/DTD/svg11.dtd">
<svg width="100%" height="100%" viewBox="0 0 1080 1080" version="1.1" xmlns="http://www.w3.org/2000/svg" xmlns:xlink="http://www.w3.org/1999/xlink" xml:space="preserve" xmlns:serif="http://www.serif.com/" style="fill-rule:evenodd;clip-rule:evenodd;stroke-linejoin:round;stroke-miterlimit:2;">
    <g transform="matrix(0.351592,0,0,0.351592,31.6378,242.663)">
        <path d="M425.536,734.502L425.536,1212.5L13.061,1212.5L13.061,303.156L425.536,303.156L425.536,533.691C596.734,269.93 869.034,-6.007 1263.11,3.272C1573.7,10.586 1797.59,151.664 1798.62,152.317C1797.21,151.425 1380.01,-111.315 899.775,195.899C646.048,358.211 525.853,568.213 425.536,734.502Z" style="fill:rgb(17,89,46);stroke:white;stroke-width:19.91px;"/>
    </g>
    <g transform="matrix(0.351592,0,0,0.351592,31.6378,242.663)">
        <path d="M1573.67,1212.5L1161.88,1212.5L781.741,669.511L1193.54,669.511L1573.67,1212.5Z" style="fill:rgb(124,133,190);stroke:white;stroke-width:19.91px;"/>
    </g>
    <g transform="matrix(0.351592,0,0,0.351592,31.6378,242.663)">
        <path d="M1879.89,1212.5L1669.41,1212.5L1289.27,669.511L1701.07,669.511L1986.87,1077.76C1954.36,1123.3 1918.83,1168.49 1879.89,1212.5Z" style="fill:rgb(124,133,190);stroke:white;stroke-width:19.91px;"/>
    </g>
    <g transform="matrix(0.351592,0,0,0.351592,31.6378,242.663)">
        <path d="M2034.03,1008.35L1796.81,669.503L2208.61,669.503L2211.6,673.777C2166.32,775.931 2109.31,891.957 2034.03,1008.35Z" style="fill:rgb(242,204,19);stroke:white;stroke-width:19.91px;"/>
    </g>
    <g transform="matrix(0.351592,0,0,0.351592,31.6378,242.663)">
        <path d="M1066.14,1212.5L654.345,1212.5L434.404,898.334L622.39,578.643L1066.14,1212.5Z" style="fill:rgb(219,31,38);stroke:white;stroke-width:19.91px;"/>
    </g>
    <g transform="matrix(0.351592,0,0,0.351592,31.6378,242.663)">
        <path d="M2287.73,916.057C2248.62,981.126 2201.17,1053.84 2145.93,1127.5C1900.75,1454.44 1606.06,1688.33 1197.41,1688.33C962.313,1688.33 815.608,1599.11 815.608,1599.11C815.608,1599.11 1198.96,1774.09 1563.44,1564.16C2116.93,1245.36 2287.23,649.091 2390.32,438.88L2543.75,438.88L2790.6,1008.99L2321.41,1008.99L2287.73,916.057Z" style="fill:rgb(17,89,46);stroke:white;stroke-width:19.91px;"/>
    </g>
    <g transform="matrix(0.351592,0,0,0.351592,31.6378,242.663)">
        <path d="M2823.61,1085.23L2878.71,1212.49L2395.16,1212.49L2349.04,1085.23L2823.61,1085.23Z" style="stroke:white;stroke-width:19.91px;"/>
    </g>
</svg>
